<svg width="32" height="32" viewBox="0 0 32 32" fill="none" xmlns="http://www.w3.org/2000/svg">
<g clip-path="url(#clip0_2_66)">
<path d="M16 5.51392C21.7915 5.51392 26.4861 10.2085 26.4861 16C26.4861 21.7915 21.7915 26.4861 16 26.4861C10.2085 26.4861 5.51389 21.7915 5.51389 16C5.51389 10.2085 10.2085 5.51392 16 5.51392Z" stroke="black" stroke-width="12.5833" stroke-linecap="round" stroke-linejoin="round"/>
<path d="M18.4223 11.8055L24.4413 22.2287" stroke="black" stroke-width="12.5833" stroke-linecap="round" stroke-linejoin="round"/>
<path d="M13.5777 11.8055H25.6158" stroke="black" stroke-width="12.5833" stroke-linecap="round" stroke-linejoin="round"/>
<path d="M11.1554 16L17.1744 5.57678" stroke="black" stroke-width="12.5833" stroke-linecap="round" stroke-linejoin="round"/>
<path d="M13.5777 20.1944L7.55869 9.77124" stroke="black" stroke-width="12.5833" stroke-linecap="round" stroke-linejoin="round"/>
<path d="M18.4223 20.1945H6.38423" stroke="black" stroke-width="12.5833" stroke-linecap="round" stroke-linejoin="round"/>
<path d="M20.8446 16L14.8256 26.4232" stroke="black" stroke-width="12.5833" stroke-linecap="round" stroke-linejoin="round"/>
<path d="M-229 -223H263V-225H-229V-223ZM264 -222V270H266V-222H264ZM263 271H-229V273H263V271ZM-230 270V-222H-232V270H-230ZM-229 271C-229.552 271 -230 270.552 -230 270H-232C-232 271.657 -230.657 273 -229 273V271ZM264 270C264 270.552 263.552 271 263 271V273C264.657 273 266 271.657 266 270H264ZM263 -223C263.552 -223 264 -222.552 264 -222H266C266 -223.657 264.657 -225 263 -225V-223ZM-229 -225C-230.657 -225 -232 -223.657 -232 -222H-230C-230 -222.552 -229.552 -223 -229 -223V-225Z" fill="black" fill-opacity="0.1"/>
</g>
<defs>
<clipPath id="clip0_2_66">
<rect width="32" height="32" fill="white"/>
</clipPath>
</defs>
</svg>
